0
SECTION
2
HEADER
9
$INSUNITS
70
4
9
$ACADVER
1
AC1014
9
$HANDSEED
5
FFFF
0
ENDSEC
0
SECTION
2
TABLES
0
TABLE
2
VPORT
5
8
100
AcDbSymbolTable
0
ENDTAB
0
TABLE
2
LTYPE
5
5
100
AcDbSymbolTable
0
LTYPE
5
14
100
AcDbSymbolTableRecord
100
AcDbLinetypeTableRecord
2
BYBLOCK
70
0
0
LTYPE
5
15
100
AcDbSymbolTableRecord
100
AcDbLinetypeTableRecord
2
BYLAYER
70
0
0
ENDTAB
0
TABLE
2
LAYER
5
2
100
AcDbSymbolTable
70
2
0
LAYER
5
50
100
AcDbSymbolTableRecord
100
AcDbLayerTableRecord
2
0
70
0
6
CONTINUOUS
0
ENDTAB
0
TABLE
2
STYLE
5
3
100
AcDbSymbolTable
70
1
0
STYLE
5
11
100
AcDbSymbolTableRecord
100
AcDbTextStyleTableRecord
2
STANDARD
70
0
0
ENDTAB
0
TABLE
2
VIEW
5
6
100
AcDbSymbolTable
70
0
0
ENDTAB
0
TABLE
2
UCS
5
7
100
AcDbSymbolTable
70
0
0
ENDTAB
0
TABLE
2
APPID
5
9
100
AcDbSymbolTable
70
2
0
APPID
5
12
100
AcDbSymbolTableRecord
100
AcDbRegAppTableRecord
2
ACAD
70
0
0
ENDTAB
0
TABLE
2
DIMSTYLE
5
A
100
AcDbSymbolTable
70
1
0
ENDTAB
0
TABLE
2
BLOCK_RECORD
5
1
100
AcDbSymbolTable
70
1
0
BLOCK_RECORD
5
1F
100
AcDbSymbolTableRecord
100
AcDbBlockTableRecord
2
*MODEL_SPACE
0
BLOCK_RECORD
5
1B
100
AcDbSymbolTableRecord
100
AcDbBlockTableRecord
2
*PAPER_SPACE
0
ENDTAB
0
ENDSEC
0
SECTION
2
BLOCKS
0
BLOCK
5
20
100
AcDbEntity
100
AcDbBlockBegin
2
*MODEL_SPACE
0
ENDBLK
5
21
100
AcDbEntity
100
AcDbBlockEnd
0
BLOCK
5
1C
100
AcDbEntity
100
AcDbBlockBegin
2
*PAPER_SPACE
0
ENDBLK
5
1D
100
AcDbEntity
100
AcDbBlockEnd
0
ENDSEC
0
SECTION
2
ENTITIES
0
CIRCLE
5
100
100
AcDbEntity
8
0
100
AcDbCircle
10
-28.475000000000009
20
-18.949999999999999
30
0
40
1.0000000000000009
210
0
220
0
230
1
0
CIRCLE
5
101
100
AcDbEntity
8
0
100
AcDbCircle
10
28.475000000000009
20
-18.949999999999999
30
0
40
1.0000000000000009
210
0
220
0
230
1
0
CIRCLE
5
102
100
AcDbEntity
8
0
100
AcDbCircle
10
-28.475000000000009
20
18.949999999999999
30
0
40
1.0000000000000009
210
0
220
0
230
1
0
CIRCLE
5
103
100
AcDbEntity
8
0
100
AcDbCircle
10
28.475000000000009
20
18.949999999999999
30
0
40
1.0000000000000009
210
0
220
0
230
1
0
LWPOLYLINE
5
104
100
AcDbEntity
8
0
100
AcDbPolyline
90
8
70
1
43
0.0
10
-12.050000000000001
20
-15.525000000000002
42
-0.4142135623730937
10
-13.050000000000001
20
-16.525000000000002
10
-25.049999999999997
20
-16.525000000000002
42
-0.41421356237309176
10
-26.050000000000004
20
-15.525000000000002
10
-26.050000000000004
20
-3.5250000000000004
42
-0.41421356237309265
10
-25.050000000000004
20
-2.5250000000000004
10
-13.050000000000001
20
-2.5249999999999999
42
-0.41421356237309492
10
-12.050000000000001
20
-3.5250000000000004
0
LWPOLYLINE
5
105
100
AcDbEntity
8
0
100
AcDbPolyline
90
8
70
1
43
0.0
10
7.0000000000000036
20
3.5249999999999959
42
-0.41421356237309459
10
6.0000000000000053
20
2.5249999999999959
10
-6.0000000000000009
20
2.5249999999999955
42
-0.41421356237309459
10
-7.0000000000000009
20
3.5249999999999959
10
-7.0000000000000018
20
15.525000000000002
42
-0.41421356237309503
10
-6.0000000000000009
20
16.525000000000002
10
6.0000000000000053
20
16.525000000000002
42
-0.41421356237309437
10
7.0000000000000053
20
15.525000000000002
0
LWPOLYLINE
5
106
100
AcDbEntity
8
0
100
AcDbPolyline
90
8
70
1
43
0.0
10
7.0000000000000062
20
-15.525000000000002
42
-0.41421356237309503
10
6.0000000000000053
20
-16.525000000000002
10
-6.0000000000000009
20
-16.525000000000002
42
-0.41421356237309437
10
-7.0000000000000009
20
-15.525000000000002
10
-7
20
-3.5250000000000004
42
-0.41421356237309459
10
-6.0000000000000009
20
-2.5250000000000004
10
6.0000000000000053
20
-2.5249999999999999
42
-0.41421356237309459
10
7.0000000000000053
20
-3.5250000000000004
0
LWPOLYLINE
5
107
100
AcDbEntity
8
0
100
AcDbPolyline
90
8
70
1
43
0.0
10
13.050000000000001
20
-16.525000000000002
42
-0.4142135623730937
10
12.050000000000001
20
-15.525000000000002
10
12.050000000000001
20
-3.5250000000000004
42
-0.41421356237309359
10
13.050000000000001
20
-2.5250000000000004
10
25.050000000000004
20
-2.5249999999999995
42
-0.41421356237309243
10
26.050000000000004
20
-3.5250000000000004
10
26.050000000000004
20
-15.525000000000002
42
-0.41421356237309176
10
25.050000000000004
20
-16.525000000000002
0
LWPOLYLINE
5
108
100
AcDbEntity
8
0
100
AcDbPolyline
90
8
70
1
43
0.0
10
-12.050000000000001
20
3.5249999999999959
42
-0.41421356237309359
10
-13.050000000000001
20
2.5249999999999959
10
-25.050000000000004
20
2.524999999999995
42
-0.41421356237309243
10
-26.050000000000004
20
3.5249999999999959
10
-26.050000000000004
20
15.525000000000002
42
-0.41421356237309176
10
-25.050000000000004
20
16.525000000000002
10
-13.050000000000001
20
16.525000000000002
42
-0.4142135623730937
10
-12.050000000000001
20
15.525000000000002
0
LWPOLYLINE
5
109
100
AcDbEntity
8
0
100
AcDbPolyline
90
8
70
1
43
0.0
10
26.050000000000004
20
3.5249999999999959
42
-0.41421356237309265
10
25.050000000000004
20
2.5249999999999959
10
13.050000000000001
20
2.5249999999999955
42
-0.41421356237309492
10
12.050000000000001
20
3.5249999999999959
10
12.050000000000001
20
15.525000000000002
42
-0.4142135623730937
10
13.050000000000001
20
16.525000000000002
10
25.049999999999997
20
16.525000000000002
42
-0.41421356237309176
10
26.050000000000004
20
15.525000000000002
0
LWPOLYLINE
5
110
100
AcDbEntity
8
0
100
AcDbPolyline
90
8
70
1
43
0.0
10
30.57500000000001
20
-20.049999999999997
42
-0.41421356237309764
10
29.575000000000003
20
-21.050000000000001
10
-29.575000000000003
20
-21.050000000000001
42
-0.41421356237309243
10
-30.575000000000006
20
-20.050000000000008
10
-30.57500000000001
20
20.050000000000008
42
-0.41421356237309631
10
-29.575000000000003
20
21.050000000000008
10
29.575000000000003
20
21.050000000000008
42
-0.41421356237309243
10
30.575000000000006
20
20.050000000000018
0
ENDSEC
0
SECTION
2
OBJECTS
0
DICTIONARY
5
C
100
AcDbDictionary
3
ACAD_GROUP
350
D
3
ACAD_MLINESTYLE
350
17
0
DICTIONARY
5
D
100
AcDbDictionary
0
DICTIONARY
5
1A
330
C
100
AcDbDictionary
0
DICTIONARY
5
17
100
AcDbDictionary
0
ENDSEC
0
EOF
